<?xml version="1.0" encoding="UTF-8" standalone="no"?>
<svg width="128px" height="34px" viewBox="0 0 128 34" version="1.1" xmlns="http://www.w3.org/2000/svg" xmlns:xlink="http://www.w3.org/1999/xlink" xmlns:sketch="http://www.bohemiancoding.com/sketch/ns">
    <!-- Generator: Sketch 3.3.3 (12072) - http://www.bohemiancoding.com/sketch -->
    <title>instawall_logo_wit</title>
    <desc>Created with Sketch.</desc>
    <defs>
        <path id="path-1" d="M0.03072,0.411090909 L127.778304,0.411090909 L127.778304,33.9690909 L0.03072,33.9690909"></path>
        <path id="path-3" d="M0.03072,0.411090909 L127.778304,0.411090909 L127.778304,33.9690909 L0.03072,33.9690909"></path>
    </defs>
    <g id="Application" stroke="none" stroke-width="1" fill="none" fill-rule="evenodd" sketch:type="MSPage">
        <g id="Tool-Desktop-Copy-4" sketch:type="MSArtboardGroup" transform="translate(-4.000000, -95.000000)">
            <g id="instawall_logo_wit" sketch:type="MSLayerGroup" transform="translate(4.000000, 95.000000)">
                <g id="Group-3">
                    <mask id="mask-2" sketch:name="Clip 2" fill="white">
                        <use xlink:href="#path-1"></use>
                    </mask>
                    <g id="Clip-2"></g>
                    <path d="M12.308992,34 L9.051136,30.7215758 L21.722112,17.9720909 L24.98048,21.2505152 L12.308992,34" id="Fill-1" fill="#5780B4" sketch:type="MSShapeGroup" mask="url(#mask-2)"></path>
                </g>
                <path d="M9.051136,30.7215758 L6.154752,27.8073636 L18.82624,15.0578788 L21.722112,17.9720909 L9.051136,30.7215758" id="Fill-4" fill="#66BB88" sketch:type="MSShapeGroup"></path>
                <g id="Group-8">
                    <mask id="mask-4" sketch:name="Clip 6" fill="white">
                        <use xlink:href="#path-3"></use>
                    </mask>
                    <g id="Clip-6"></g>
                    <path d="M6.154752,27.8073636 L2.896384,24.5289394 L15.56736,11.7794545 L18.82624,15.0578788 L6.154752,27.8073636" id="Fill-5" fill="#F8C44E" sketch:type="MSShapeGroup" mask="url(#mask-4)"></path>
                    <path d="M2.896384,24.5289394 L0,21.6147273 L12.670976,8.86524242 L15.56736,11.7794545 L2.896384,24.5289394" id="Fill-7" fill="#DD3E59" sketch:type="MSShapeGroup" mask="url(#mask-4)"></path>
                </g>
                <path d="M19.05408,5.15615152 C19.05408,4.64357576 19.323392,4.20157576 19.861504,3.83118182 C20.399104,3.46078788 20.881408,3.27533333 21.306368,3.27533333 C22.070784,3.27533333 22.453248,3.71733333 22.453248,4.60081818 C22.453248,5.48430303 22.226432,6.24621212 21.773312,6.88757576 C21.320192,7.52893939 20.682752,7.84936364 19.861504,7.84936364 C19.323392,7.84936364 19.05408,6.9519697 19.05408,5.15615152 L19.05408,5.15615152 Z M20.286464,26.2747879 C19.181568,26.2747879 18.345984,26.0470909 17.779712,25.5906667 C17.581056,25.3918182 17.48224,24.6788485 17.48224,23.4527879 C17.48224,22.2277576 17.573888,20.1831212 17.75872,17.3188788 C17.942528,14.4546364 18.104832,12.9086667 18.247168,12.6804545 C18.38848,12.4522424 18.827264,12.0251818 19.564032,11.3977273 C20.300288,10.771303 20.87424,10.4570606 21.284864,10.4570606 C21.694976,10.4570606 21.9008,10.999 21.9008,12.0818485 C21.9008,12.3667273 21.822976,12.9225758 21.667328,13.7488788 C21.511168,14.575697 21.334016,15.174303 21.136384,15.544697 C20.767744,16.4848485 20.583936,18.9503636 20.583936,22.9402121 C20.583936,23.7093333 20.668928,24.0941515 20.838912,24.0941515 C21.320192,24.0663333 21.985792,23.4605152 22.835712,22.2777273 C23.685632,21.0949394 24.527872,19.5778182 25.363968,17.7248182 C26.19904,15.8723333 26.708992,14.9460909 26.893312,14.9460909 C27.07712,14.9460909 27.16928,15.0599394 27.16928,15.2881515 C27.16928,16.0861212 26.758656,17.3544242 25.937408,19.0925455 C23.699456,23.8803636 21.815808,26.2747879 20.286464,26.2747879 L20.286464,26.2747879 Z" id="Fill-9" fill="#373737" sketch:type="MSShapeGroup"></path>
                <path d="M28.231168,23.7520909 L28.273664,25.0780909 C28.273664,25.8755455 28.046848,26.2747879 27.59424,26.2747879 C26.914304,26.2747879 26.262016,26.1815455 25.639424,25.9971212 C25.01632,25.8116667 24.705024,25.5551212 24.705024,25.2274848 C24.705024,24.8998485 24.78336,23.7737273 24.938496,21.8501515 C25.093632,19.9265758 25.17248,18.4800303 25.17248,17.5110303 L25.17248,14.9888485 C25.17248,13.6206061 25.31328,12.794303 25.596928,12.5094242 C25.879552,12.2245455 26.382848,11.8113939 27.10528,11.2694545 C27.827712,10.7285455 28.351488,10.4570606 28.677632,10.4570606 C29.002752,10.4570606 29.208576,10.5147576 29.293568,10.6280909 C29.37856,10.7424545 29.421056,10.9562424 29.421056,11.2694545 C29.421056,12.7803939 29.137408,14.205303 28.571136,15.544697 C28.429312,17.1689697 28.358656,18.2956061 28.358656,18.9215152 C28.471808,18.7504848 29.066752,17.7825152 30.142976,16.0145152 C31.219712,14.2480606 32.13312,12.9514242 32.883712,12.1246061 C33.633792,11.298303 34.307072,10.8846364 34.902016,10.8846364 C35.49696,10.8846364 36.027904,11.0845152 36.49536,11.4832424 C36.962816,11.8824848 37.196288,12.3811515 37.196288,12.9792424 C37.196288,14.2341515 37.061632,16.0789091 36.792832,18.5155758 C36.52352,20.9522424 36.388864,22.491 36.388864,23.1323636 C36.388864,23.7737273 36.473856,24.0941515 36.64384,24.0941515 C37.12512,24.0663333 37.791232,23.4605152 38.641152,22.2777273 C39.49056,21.0949394 40.333312,19.5778182 41.168896,17.7248182 C42.00448,15.8723333 42.51392,14.9460909 42.69824,14.9460909 C42.88256,14.9460909 42.97472,15.0599394 42.97472,15.2881515 C42.97472,16.0861212 42.563584,17.3544242 41.742336,19.0925455 C39.504896,23.8803636 37.621248,26.2747879 36.091904,26.2747879 C34.987008,26.2747879 34.151424,26.0470909 33.58464,25.5906667 C33.385984,25.3918182 33.28768,24.871 33.28768,24.0302727 C33.28768,23.1900606 33.364992,21.8218182 33.521152,19.9265758 C33.676288,18.0313333 33.754624,16.6131212 33.754624,15.6724545 C33.754624,14.732303 33.591296,14.2619697 33.266176,14.2619697 C32.940032,14.2619697 32.083456,15.238697 30.695936,17.1906061 C29.307392,19.1425152 28.571136,20.389697 28.486144,20.9311212 C28.31616,21.9289697 28.231168,22.8696364 28.231168,23.7520909" id="Fill-10" fill="#373737" sketch:type="MSShapeGroup"></path>
                <path d="M44.248576,21.4014545 C43.11552,22.5414848 42.549248,23.4605152 42.549248,24.1585455 C42.549248,24.8570909 42.90304,25.2058485 43.611648,25.2058485 C44.036096,25.2058485 44.3904,25.0353333 44.673536,24.6932727 C45.296128,23.8376061 45.154816,22.7413636 44.248576,21.4014545 L44.248576,21.4014545 Z M46.967808,12.9792424 L47.0528,12.3383939 C47.0528,11.825303 46.761984,11.5687576 46.181888,11.5687576 C45.600768,11.5687576 45.041664,11.9468788 44.503552,12.7015758 C43.96544,13.457303 43.69664,14.0770303 43.69664,14.5612727 C43.69664,15.0465455 43.724288,15.4308485 43.781632,15.7152121 C43.837952,16.0006061 43.90144,16.2360303 43.972608,16.4209697 C44.042752,16.6064242 44.163584,16.8269091 44.333568,17.0834545 C44.503552,17.34 44.63104,17.5259697 44.716032,17.639303 L45.183488,18.2379091 C45.38112,18.5227879 45.523456,18.7082424 45.608448,18.7937576 C47.08096,17.5687273 48.837632,16.2004848 50.876928,14.6895455 C50.989568,14.6040303 51.117056,14.5612727 51.259392,14.5612727 C51.542016,14.5612727 51.684352,14.7183939 51.684352,15.0316061 C51.684352,15.3453333 51.556864,15.5874545 51.301888,15.7579697 C49.488896,16.9273636 47.775232,18.1946364 46.160896,19.5633939 C46.783488,20.4752121 47.095296,21.4730606 47.095296,22.5553939 C47.095296,23.6392727 46.684672,24.565 45.863424,25.3341212 C45.041664,26.1037576 43.9936,26.4885758 42.719232,26.4885758 C41.444352,26.4885758 40.807424,25.8755455 40.807424,24.6505152 C40.807424,23.7670303 41.741824,22.4132121 43.611648,20.5890606 C43.469312,20.4180303 43.214336,20.1403636 42.84672,19.7555455 C42.47808,19.3707273 42.202112,19.0647273 42.018304,18.836 C41.833472,18.608303 41.614336,18.3095152 41.35936,17.9380909 C40.90624,17.2261515 40.679936,16.4570303 40.679936,15.6302121 C40.679936,13.9487576 41.217536,12.5882424 42.294272,11.5476364 C43.370496,10.5070303 44.517888,9.98724242 45.735936,9.98724242 C46.500864,9.98724242 47.095296,10.1943333 47.520256,10.6069697 C47.945216,11.0206364 48.157696,11.4404848 48.157696,11.8680606 C48.157696,12.8370606 47.930368,13.321303 47.47776,13.321303 C47.137792,13.321303 46.967808,13.2079697 46.967808,12.9792424 L46.967808,12.9792424 Z" id="Fill-11" fill="#373737" sketch:type="MSShapeGroup"></path>
                <path d="M59.034112,19.0925455 C56.796672,23.8803636 54.905856,26.2747879 53.362176,26.2747879 C51.817984,26.2747879 50.911744,26.0893333 50.642944,25.7189394 C50.373632,25.3490606 50.238976,24.123 50.238976,22.042303 C50.238976,19.9626364 50.43712,16.9551818 50.834432,13.022 C49.41824,12.7376364 48.667136,12.1534545 48.582144,11.2694545 C48.582144,10.8140606 48.879616,10.5853333 49.47456,10.5853333 C50.068992,10.5853333 50.59328,10.699697 51.0464,10.9273939 C51.301376,8.87554545 51.598848,6.79536364 51.938816,4.68633333 C52.023808,4.14490909 52.292608,3.63181818 52.74624,3.14706061 C53.198848,2.66281818 53.638144,2.42018182 54.063104,2.42018182 C54.431232,2.42018182 54.615552,3.00487879 54.615552,4.17324242 C54.615552,4.71466667 54.416896,7.20851515 54.020608,11.6542727 C54.785536,11.5120909 55.627776,11.226697 56.548864,10.7991212 C57.468928,10.3715455 58.01472,10.1582727 58.184704,10.1582727 C58.694656,10.1582727 58.949632,10.3148788 58.949632,10.6280909 C58.97728,10.9134848 58.453504,11.3055152 57.37728,11.8041818 C56.300544,12.3028485 55.139328,12.6804545 53.89312,12.937 C53.553664,17.0978788 53.38368,20.247 53.38368,22.3843636 C53.38368,23.5249091 53.553664,24.0941515 53.89312,24.0941515 C54.403072,24.0663333 55.083008,23.4682424 55.932928,22.2988485 C56.782336,21.131 57.625088,19.6128485 58.460672,17.7459394 C59.296256,15.8800606 59.805696,14.9460909 59.990016,14.9460909 C60.174336,14.9460909 60.266496,15.0599394 60.266496,15.2881515 C60.266496,16.0861212 59.85536,17.3544242 59.034112,19.0925455" id="Fill-12" fill="#373737" sketch:type="MSShapeGroup"></path>
                <path d="M64.812032,12.5949394 C64.018944,12.5949394 63.176192,13.1868485 62.283776,14.3691212 C61.391872,15.5519091 60.94592,16.9412727 60.94592,18.536697 C60.94592,20.1331515 61.179392,21.4442121 61.646848,22.4698788 C62.113792,23.4955455 62.73024,24.0086364 63.495168,24.0086364 C64.429568,24.0086364 65.803264,21.6574848 67.616256,16.9551818 C67.644416,16.7274848 67.680256,16.3354545 67.72224,15.7796061 C67.765248,15.2237576 67.800064,14.8039091 67.829248,14.5185152 C67.574272,14.0631212 67.127296,13.6283333 66.490368,13.2146667 C65.85344,12.8020303 65.293312,12.5949394 64.812032,12.5949394 L64.812032,12.5949394 Z M69.995008,26.2747879 C68.891136,26.2747879 68.05504,26.0470909 67.48928,25.5906667 C67.290112,25.3918182 67.191296,24.8854242 67.191296,24.0730303 C67.191296,23.2606364 67.219456,22.1705758 67.276288,20.8028485 C66.539008,22.6558485 65.810432,24.0302727 65.088,24.9281818 C64.36608,25.8260909 63.437824,26.2747879 62.30528,26.2747879 C61.172224,26.2747879 60.180992,25.7405758 59.331072,24.6716364 C58.481664,23.602697 58.056704,21.9217576 58.056704,19.6272727 C58.056704,17.333303 58.700288,15.3025758 59.989504,13.5350909 C61.278208,11.7686364 62.970368,10.8846364 65.067008,10.8846364 C65.973248,10.8846364 66.993152,11.4832424 68.126208,12.6804545 C68.352,12.3667273 68.75648,11.9896364 69.337088,11.5476364 C69.917184,11.1061515 70.413312,10.8846364 70.824448,10.8846364 C71.234048,10.8846364 71.440384,11.4265758 71.440384,12.5094242 C71.440384,12.794303 71.362048,13.3501515 71.2064,14.1764545 C71.05024,15.0037879 70.873088,15.6018788 70.675456,15.9717576 C70.42048,16.6280606 70.293504,18.9503636 70.293504,22.9402121 C70.293504,23.7093333 70.378496,24.0941515 70.54848,24.0941515 C71.029248,24.0663333 71.69536,23.4605152 72.54528,22.2777273 C73.394176,21.0949394 74.23744,19.5778182 75.073024,17.7248182 C75.908096,15.8723333 76.418048,14.9460909 76.602368,14.9460909 C76.786176,14.9460909 76.87936,15.0599394 76.87936,15.2881515 C76.87936,16.0861212 76.468224,17.3544242 75.646464,19.0925455 C73.408,23.8803636 71.525376,26.2747879 69.995008,26.2747879 L69.995008,26.2747879 Z" id="Fill-13" fill="#373737" sketch:type="MSShapeGroup"></path>
                <path d="M88.64768,12.0818485 C88.392704,12.0818485 88.265216,12.5666061 88.265216,13.5350909 C88.265216,14.5046061 88.704,15.402 89.582592,16.228303 C89.61024,16.0861212 89.624576,15.8723333 89.624576,15.5874545 C89.624576,13.2507273 89.299456,12.0818485 88.64768,12.0818485 L88.64768,12.0818485 Z M92.004352,17.2117273 C93.19424,17.2117273 94.298624,16.6986364 95.318016,15.6724545 C95.82848,15.1598788 96.174592,14.9033333 96.359424,14.9033333 C96.543232,14.9033333 96.635904,15.0465455 96.635904,15.3309091 C96.635904,15.6157879 96.45056,15.9578485 96.083456,16.3565758 C94.58176,18.0390606 92.698112,18.8787576 90.432,18.8787576 C89.97888,20.988303 89.270272,22.7475455 88.307712,24.1585455 C87.34464,25.5695455 86.12608,26.2747879 84.653568,26.2747879 C83.180544,26.2747879 82.118656,25.4052121 81.467392,23.6665758 C80.305152,25.4052121 79.101952,26.2747879 77.855744,26.2747879 C75.504128,26.2747879 74.329088,23.9947273 74.329088,19.4351212 C74.329088,16.2710606 74.640896,14.1197879 75.264,12.9792424 C75.37664,12.7803939 75.8016,12.4522424 76.53888,11.9963333 C77.274624,11.5404242 77.784576,11.3122121 78.068224,11.3122121 C78.493184,11.3122121 78.705664,11.5687576 78.705664,12.0818485 C78.64832,13.4217576 78.252032,15.0037879 77.515776,16.8269091 C77.345792,17.1689697 77.2608,17.9885758 77.2608,19.2852121 C77.2608,20.5823636 77.409792,21.7218788 77.707264,22.7047879 C78.004224,23.6882121 78.43584,24.1796667 79.002624,24.1796667 C79.569408,24.1796667 80.262656,23.4955455 81.084928,22.1278182 C80.942592,21.4158788 80.872448,20.6529394 80.872448,19.8410606 C80.872448,19.0281515 80.95744,18.1596061 81.127424,17.2333636 C81.297408,16.3071212 81.637376,15.3736667 82.147328,14.433 C82.656768,13.4923333 83.265536,13.022 83.974144,13.022 C84.200448,13.022 84.363264,13.0936061 84.462592,13.2357879 C84.56192,13.379 84.611072,13.7210606 84.611072,14.2619697 C84.611072,15.7152121 84.228608,17.5259697 83.464192,19.6916667 C83.577344,20.9455455 83.867648,22.0072727 84.335104,22.8758182 C84.80256,23.7459091 85.319168,24.1796667 85.886464,24.1796667 C86.7072,24.1796667 87.401472,23.6454545 87.967744,22.5765152 C88.534016,21.5080909 88.973312,20.2042424 89.28512,18.6649697 C88.236544,18.3806061 87.429632,17.8386667 86.86336,17.040697 C86.296064,16.2432424 86.013952,15.3242121 86.013952,14.2836061 C86.013952,13.2435152 86.261248,12.3456061 86.757376,11.5903939 C87.25248,10.8351818 87.981568,10.4570606 88.945152,10.4570606 C90.24768,10.4570606 90.899968,11.8680606 90.899968,14.6895455 C90.899968,15.4308485 90.857472,16.2004848 90.77248,16.9979394 C91.19744,17.1406364 91.60704,17.2117273 92.004352,17.2117273 L92.004352,17.2117273 Z" id="Fill-14" fill="#373737" sketch:type="MSShapeGroup"></path>
                <path d="M100.841984,12.5949394 C100.048896,12.5949394 99.206144,13.1868485 98.313728,14.3691212 C97.421824,15.5519091 96.97536,16.9412727 96.97536,18.536697 C96.97536,20.1331515 97.209344,21.4442121 97.6768,22.4698788 C98.143744,23.4955455 98.75968,24.0086364 99.524608,24.0086364 C100.459008,24.0086364 101.833216,21.6574848 103.646208,16.9551818 C103.673856,16.7274848 103.709696,16.3354545 103.752192,15.7796061 C103.794688,15.2237576 103.829504,14.8039091 103.858688,14.5185152 C103.603712,14.0631212 103.157248,13.6283333 102.52032,13.2146667 C101.88288,12.8020303 101.323264,12.5949394 100.841984,12.5949394 L100.841984,12.5949394 Z M106.025472,26.2747879 C104.920576,26.2747879 104.084992,26.0470909 103.51872,25.5906667 C103.320064,25.3918182 103.221248,24.8854242 103.221248,24.0730303 C103.221248,23.2606364 103.249408,22.1705758 103.30624,20.8028485 C102.569472,22.6558485 101.840384,24.0302727 101.118464,24.9281818 C100.39552,25.8260909 99.467776,26.2747879 98.335232,26.2747879 C97.201664,26.2747879 96.210944,25.7405758 95.360512,24.6716364 C94.511104,23.602697 94.086144,21.9217576 94.086144,19.6272727 C94.086144,17.333303 94.73024,15.3025758 96.019456,13.5350909 C97.30816,11.7686364 99.00032,10.8846364 101.09696,10.8846364 C102.002688,10.8846364 103.022592,11.4832424 104.155648,12.6804545 C104.382464,12.3667273 104.78592,11.9896364 105.366528,11.5476364 C105.947136,11.1061515 106.443264,10.8846364 106.853888,10.8846364 C107.264,10.8846364 107.470336,11.4265758 107.470336,12.5094242 C107.470336,12.794303 107.392,13.3501515 107.236352,14.1764545 C107.080192,15.0037879 106.90304,15.6018788 106.705408,15.9717576 C106.450432,16.6280606 106.322944,18.9503636 106.322944,22.9402121 C106.322944,23.7093333 106.407936,24.0941515 106.57792,24.0941515 C107.0592,24.0663333 107.7248,23.4605152 108.57472,22.2777273 C109.424128,21.0949394 110.26688,19.5778182 111.102976,17.7248182 C111.937536,15.8723333 112.448,14.9460909 112.63232,14.9460909 C112.816128,14.9460909 112.9088,15.0599394 112.9088,15.2881515 C112.9088,16.0861212 112.497664,17.3544242 111.676416,19.0925455 C109.438464,23.8803636 107.555328,26.2747879 106.025472,26.2747879 L106.025472,26.2747879 Z" id="Fill-15" fill="#373737" sketch:type="MSShapeGroup"></path>
                <path d="M115.968,3.23257576 C115.968,2.32075758 115.854336,1.86484848 115.62752,1.86484848 C114.778112,1.86484848 114.154496,5.41269697 113.758208,12.5094242 C115.23072,8.60509091 115.968,5.51315152 115.968,3.23257576 L115.968,3.23257576 Z M113.460736,26.2747879 C112.837632,26.2747879 112.26368,26.1959697 111.740416,26.0398788 C111.215616,25.8832727 110.89664,25.7333636 110.784,25.5906667 C110.500864,25.2486061 110.35904,23.4744242 110.35904,20.2686364 C110.35904,17.0623333 110.713344,12.7087879 111.42144,7.20851515 C112.016384,2.67672727 113.403904,0.411090909 115.585024,0.411090909 C116.095488,0.411090909 116.462592,0.688757576 116.68992,1.24460606 C116.916224,1.80045455 117.029888,2.33466667 117.029888,2.84775758 C117.029888,6.55324242 115.910656,10.699697 113.673216,15.2881515 C113.588224,17.6542424 113.545728,19.7127879 113.545728,21.4653333 C113.545728,23.2178788 113.701376,24.0941515 114.013184,24.0941515 C114.494976,24.0663333 115.160064,23.4605152 116.010496,22.2777273 C116.859904,21.0949394 117.702144,19.5778182 118.53824,17.7248182 C119.373312,15.8723333 119.883264,14.9460909 120.067584,14.9460909 C120.251904,14.9460909 120.343552,15.0599394 120.343552,15.2881515 C120.343552,16.0861212 119.93344,17.3544242 119.11168,19.0925455 C116.873728,23.8803636 114.99008,26.2747879 113.460736,26.2747879 L113.460736,26.2747879 Z" id="Fill-16" fill="#373737" sketch:type="MSShapeGroup"></path>
                <path d="M123.40224,3.23257576 C123.40224,2.32075758 123.288576,1.86484848 123.062272,1.86484848 C122.212864,1.86484848 121.589248,5.41269697 121.19296,12.5094242 C122.665472,8.60509091 123.40224,5.51315152 123.40224,3.23257576 L123.40224,3.23257576 Z M120.895488,26.2747879 C120.272384,26.2747879 119.698432,26.1959697 119.174656,26.0398788 C118.650368,25.8832727 118.331392,25.7333636 118.218752,25.5906667 C117.935104,25.2486061 117.793792,23.4744242 117.793792,20.2686364 C117.793792,17.0623333 118.147584,12.7087879 118.85568,7.20851515 C119.450624,2.67672727 120.838144,0.411090909 123.019776,0.411090909 C123.529728,0.411090909 123.897344,0.688757576 124.12416,1.24460606 C124.350976,1.80045455 124.464128,2.33466667 124.464128,2.84775758 C124.464128,6.55324242 123.345408,10.699697 121.107968,15.2881515 C121.022976,17.6542424 120.98048,19.7127879 120.98048,21.4653333 C120.98048,23.2178788 121.135616,24.0941515 121.447936,24.0941515 C121.929216,24.0663333 122.594816,23.4605152 123.444736,22.2777273 C124.294144,21.0949394 125.136896,19.5778182 125.972992,17.7248182 C126.807552,15.8723333 127.317504,14.9460909 127.502336,14.9460909 C127.686144,14.9460909 127.778304,15.0599394 127.778304,15.2881515 C127.778304,16.0861212 127.36768,17.3544242 126.546432,19.0925455 C124.30848,23.8803636 122.424832,26.2747879 120.895488,26.2747879 L120.895488,26.2747879 Z" id="Fill-17" fill="#373737" sketch:type="MSShapeGroup"></path>
            </g>
        </g>
    </g>
</svg>